{"glyphs":{":":{"x_min":0,"x_max":225,"ha":225,"o":"m 17 68 q 17 84 23 98 q 28 112 39 122 q 49 132 63 138 q 76 144 92 144 q 108 144 122 138 q 136 132 146 122 q 156 112 162 98 q 168 84 168 68 q 168 52 162 38 q 156 24 146 14 q 136 4 122 -1 q 108 -7 92 -7 q 76 -7 63 -1 q 49 4 39 14 q 28 24 23 38 q 17 52 17 68 z m 66 424 q 66 440 72 454 q 78 468 88 478 q 98 488 112 494 q 126 500 142 500 q 158 500 171 494 q 185 488 195 478 q 206 468 212 454 q 218 440 218 424 q 218 408 212 395 q 206 381 195 371 q 185 361 171 355 q 158 350 142 350 q 126 350 112 355 q 98 361 88 371 q 78 381 72 395 q 66 408 66 424 z"},"$":{"x_min":0,"x_max":580,"ha":580,"o":"m 203 -4 q 146 3 97 27 q 49 51 18 87 l 61 142 q 66 148 75 153 q 84 158 93 158 q 104 158 115 150 q 126 142 141 131 q 156 120 175 110 q 195 99 223 94 l 270 324 q 238 333 208 345 q 178 358 154 377 q 130 396 114 426 q 100 455 100 498 q 100 542 117 582 q 134 622 168 654 q 200 686 248 706 q 294 726 354 729 l 366 792 q 369 804 379 814 q 389 823 402 823 l 446 823 l 426 725 q 478 716 514 695 q 550 674 574 646 l 540 603 q 533 593 526 588 q 518 584 508 584 q 501 584 491 588 q 482 594 469 600 q 457 608 441 614 q 426 622 406 626 l 362 414 q 384 407 406 400 q 427 392 447 382 q 466 372 483 360 q 500 348 512 332 q 525 315 532 294 q 540 273 540 246 q 540 197 521 153 q 503 108 469 74 q 435 40 386 19 q 338 -3 276 -7 l 261 -82 q 258 -94 248 -103 q 238 -112 225 -112 l 181 -112 z m 423 217 q 423 234 417 247 q 410 260 399 270 q 388 280 373 288 q 358 295 340 302 l 297 92 q 358 100 390 133 q 423 166 423 217 z m 214 524 q 214 508 220 494 q 226 482 236 471 q 247 460 262 452 q 276 444 294 438 l 332 628 q 301 624 278 615 q 256 606 242 592 q 228 578 221 561 q 214 544 214 524 z"},"?":{"x_min":0,"x_max":390,"ha":390,"o":"m 68 657 q 86 672 106 685 q 126 698 149 709 q 172 719 199 725 q 225 730 254 730 q 294 730 324 719 q 354 708 374 688 q 395 669 406 643 q 416 616 416 586 q 416 555 410 531 q 403 506 392 488 q 381 469 367 454 q 353 440 338 428 q 322 416 307 405 q 292 394 279 382 q 266 371 256 358 q 246 345 241 328 l 221 254 l 139 254 l 139 336 q 139 361 151 380 q 164 400 182 416 q 201 433 222 448 q 244 464 263 480 q 282 498 294 518 q 306 538 306 564 q 306 596 288 615 q 269 634 232 634 q 207 634 188 628 q 170 621 156 613 q 142 606 133 599 q 124 592 116 592 q 108 592 102 596 q 96 600 93 608 z m 92 68 q 92 84 97 98 q 103 112 113 122 q 123 132 137 138 q 151 144 167 144 q 183 144 197 138 q 210 132 221 122 q 231 112 237 98 q 243 84 243 68 q 243 52 237 38 q 231 24 221 14 q 210 4 197 -1 q 183 -7 167 -7 q 151 -7 137 -1 q 123 4 113 14 q 103 24 97 38 q 92 52 92 68 z"},"<":{"x_min":0,"x_max":534,"ha":534,"o":"m 80 362 l 501 568 l 490 480 q 489 470 483 462 q 477 454 464 448 l 272 355 q 259 349 246 345 q 232 340 218 337 q 232 334 244 329 q 256 325 267 319 l 438 226 q 448 220 452 213 q 456 206 456 198 q 456 198 455 196 q 455 194 454 184 q 452 176 450 157 q 448 138 444 105 l 74 312 z"},"'":{"x_min":0,"x_max":220,"ha":220,"o":"m 220 722 l 202 578 l 182 500 q 177 479 167 468 q 156 456 136 456 q 118 456 109 468 q 100 479 99 500 l 99 578 l 117 722 z"},"=":{"x_min":0,"x_max":580,"ha":580,"o":"m 74 293 l 516 293 l 504 204 l 63 204 z m 96 468 l 536 468 l 526 379 l 85 379 z"},"a":{"x_min":0,"x_max":520,"ha":520,"o":"m 430 0 l 365 0 q 342 0 334 10 q 324 21 324 37 l 328 107 q 294 54 252 23 q 210 -8 158 -8 q 130 -8 104 4 q 79 16 60 38 q 42 61 31 95 q 20 130 20 176 q 20 222 32 265 q 43 308 64 347 q 86 385 116 417 q 146 449 183 472 q 220 495 263 508 q 306 520 354 520 q 389 520 424 516 q 458 510 492 498 z m 207 94 q 228 94 247 108 q 267 122 284 146 q 302 171 317 204 q 332 238 343 276 l 362 432 q 349 433 338 433 q 296 433 260 414 q 225 395 199 363 q 173 330 158 288 q 144 245 144 198 q 144 144 160 118 q 178 94 207 94 z"},"L":{"x_min":0,"x_max":476,"ha":476,"o":"m 178 108 l 440 108 l 428 0 l 35 0 l 124 723 l 254 723 z"},"3":{"x_min":0,"x_max":580,"ha":580,"o":"m 372 730 q 418 730 454 718 q 490 705 516 682 q 541 660 554 630 q 568 599 568 564 q 568 524 558 494 q 549 465 532 443 q 514 422 488 407 q 463 392 430 384 q 486 364 514 327 q 542 289 542 236 q 542 178 519 132 q 496 86 458 56 q 420 24 370 8 q 320 -8 266 -8 q 216 -8 177 3 q 138 14 111 38 q 83 62 66 98 q 48 134 38 182 l 94 204 q 109 210 122 210 q 136 210 144 205 q 153 200 156 190 q 164 165 175 147 q 186 128 200 116 q 214 104 234 98 q 252 92 278 92 q 312 92 339 104 q 366 116 384 136 q 403 156 413 181 q 422 206 422 234 q 422 254 416 271 q 410 288 392 301 q 374 313 344 320 q 314 328 266 328 l 277 412 q 324 412 356 421 q 389 430 410 446 q 430 463 439 486 q 448 510 448 540 q 448 584 423 607 q 397 630 353 630 q 307 630 274 606 q 242 582 226 544 q 218 525 206 517 q 195 509 179 509 q 172 509 163 510 l 102 522 q 116 573 142 612 q 168 652 203 678 q 238 704 281 717 q 324 730 372 730 z"},";":{"x_min":0,"x_max":225,"ha":225,"o":"m 18 76 q 18 90 23 102 q 28 114 38 124 q 47 133 60 138 q 74 144 90 144 q 108 144 123 137 q 137 130 146 118 q 156 106 160 91 q 165 76 165 59 q 165 35 158 8 q 150 -18 136 -44 q 122 -71 102 -96 q 82 -121 54 -142 l 33 -122 q 24 -115 24 -104 q 24 -97 32 -87 q 41 -78 52 -65 q 62 -52 73 -36 q 84 -19 88 2 q 72 2 59 7 q 46 13 37 23 q 28 33 22 46 q 18 60 18 76 z m 67 424 q 67 440 73 454 q 78 468 89 478 q 99 488 113 494 q 126 500 142 500 q 158 500 172 494 q 186 488 196 478 q 206 468 212 454 q 218 440 218 424 q 218 408 212 395 q 206 381 196 371 q 186 361 172 355 q 158 350 142 350 q 126 350 113 355 q 99 361 89 371 q 78 381 73 395 q 67 408 67 424 z"},"J":{"x_min":0,"x_max":401,"ha":401,"o":"m 336 250 q 329 190 310 142 q 290 94 259 61 q 228 28 184 10 q 142 -8 87 -8 q 60 -8 36 -5 q 12 -2 -14 6 l -4 82 q -3 92 3 99 q 10 106 22 106 q 34 106 49 102 q 64 99 88 99 q 110 99 130 107 q 150 115 165 133 q 180 150 191 179 q 202 207 206 248 l 264 723 l 394 723 z"},"V":{"x_min":0,"x_max":658,"ha":658,"o":"m 60 723 l 164 723 q 182 723 192 715 q 202 706 204 694 l 300 243 q 306 220 310 196 q 314 172 318 145 q 327 172 338 197 q 348 222 358 243 l 564 694 q 568 704 581 714 q 594 723 610 723 l 715 723 l 358 0 l 240 0 z"},"\"":{"x_min":0,"x_max":392,"ha":392,"o":"m 220 722 l 202 578 l 182 500 q 177 479 167 468 q 156 456 136 456 q 118 456 110 468 q 102 479 99 500 l 99 578 l 117 722 z m 393 722 l 375 578 l 355 500 q 350 479 339 468 q 329 456 308 456 q 290 456 282 468 q 274 479 272 500 l 272 578 l 290 722 z"},"7":{"x_min":0,"x_max":580,"ha":580,"o":"m 606 723 l 601 676 q 599 660 595 645 q 590 630 585 621 l 223 28 q 216 16 203 8 q 190 0 176 0 l 76 0 l 427 558 q 438 576 448 589 q 460 602 472 615 l 122 615 q 112 615 105 622 q 98 630 98 640 l 108 723 z"},"S":{"x_min":0,"x_max":494,"ha":494,"o":"m 468 593 q 460 583 454 578 q 446 574 436 574 q 426 574 416 582 q 406 590 391 599 q 376 609 357 617 q 337 625 309 625 q 282 625 260 617 q 240 609 225 595 q 211 581 204 562 q 196 543 196 521 q 196 498 208 483 q 220 468 239 456 q 258 444 282 436 q 307 426 332 416 q 358 406 382 394 q 406 380 426 362 q 444 342 456 316 q 468 289 468 251 q 468 198 450 151 q 432 104 397 69 q 363 34 314 13 q 266 -8 204 -8 q 173 -8 142 -1 q 112 6 85 18 q 58 30 35 48 q 12 66 -5 87 l 41 149 q 46 156 55 160 q 64 165 72 165 q 80 165 88 160 q 96 155 105 148 q 114 140 125 132 q 136 123 150 116 q 164 108 181 104 q 198 98 222 98 q 278 98 310 130 q 342 162 342 219 q 342 244 330 260 q 319 276 300 287 q 281 298 257 306 q 233 314 208 324 q 182 333 158 345 q 134 358 116 377 q 96 396 85 424 q 74 452 74 493 q 74 540 91 582 q 108 626 140 658 q 172 691 218 711 q 264 730 321 730 q 350 730 378 724 q 405 718 428 708 q 452 696 472 681 q 492 666 506 648 z"},"}":{"x_min":0,"x_max":276,"ha":276,"o":"m 229 400 q 229 376 240 360 q 252 344 276 344 l 268 276 q 230 276 216 245 q 202 214 202 150 q 202 142 202 132 q 202 122 203 110 q 203 99 204 88 q 204 77 204 69 q 204 16 192 -25 q 180 -66 156 -95 q 132 -123 94 -138 q 57 -152 7 -152 l -16 -152 l -10 -99 q -10 -93 -6 -88 q -3 -84 1 -81 q 6 -78 10 -77 q 14 -76 18 -76 l 22 -76 q 54 -76 74 -52 q 92 -28 96 16 q 99 42 100 65 q 100 88 100 111 q 100 133 100 154 q 101 176 103 197 q 105 218 112 236 q 118 254 130 269 q 141 284 156 294 q 171 305 189 310 q 160 320 144 345 q 129 370 129 402 q 129 430 136 458 q 142 486 150 514 q 158 542 164 570 q 171 598 171 628 q 171 658 157 677 q 144 696 116 696 l 112 696 q 106 696 98 701 q 90 706 90 717 q 90 718 90 719 q 90 720 91 725 q 92 730 93 742 q 94 752 97 772 l 121 772 q 160 772 190 762 q 219 752 238 733 q 256 714 266 688 q 275 662 275 630 q 275 598 268 568 q 260 539 252 511 q 244 483 236 456 q 229 428 229 400 z"},"Z":{"x_min":0,"x_max":566,"ha":566,"o":"m 602 723 l 596 682 q 596 674 592 666 q 588 659 582 652 l 182 104 l 518 104 l 504 0 l -4 0 l 2 40 q 2 48 6 56 q 10 64 16 70 l 416 620 l 95 620 l 108 723 z"},"x":{"x_min":0,"x_max":505,"ha":505,"o":"m 178 278 l 58 513 l 170 513 q 183 513 188 510 q 194 506 198 498 l 268 344 q 272 350 275 357 q 278 363 283 370 l 373 496 q 379 504 386 508 q 392 513 400 513 l 512 513 l 332 277 l 464 0 l 352 0 q 339 0 332 7 q 324 14 320 22 l 242 202 q 240 197 236 192 q 234 186 230 182 l 116 22 q 110 14 102 7 q 94 0 82 0 l -26 0 z"},")":{"x_min":0,"x_max":276,"ha":276,"o":"m 142 411 q 142 446 139 484 q 136 522 131 561 q 125 600 116 637 q 108 674 96 705 q 92 714 92 722 q 92 734 98 740 q 104 747 112 752 l 169 784 q 189 741 204 695 q 218 649 228 602 q 237 556 242 509 q 246 463 246 420 q 246 346 237 275 q 228 205 206 135 q 184 65 146 -7 q 110 -78 54 -156 l 4 -124 q -1 -120 -5 -116 q -9 -110 -9 -103 q -9 -98 -7 -92 q -5 -86 0 -78 q 34 -20 60 36 q 87 93 105 152 q 123 212 132 276 q 142 340 142 411 z"},"&":{"x_min":0,"x_max":658,"ha":658,"o":"m 364 730 q 402 730 433 719 q 464 708 486 686 q 508 666 520 636 q 532 606 532 570 l 460 556 q 454 554 448 554 q 430 554 426 574 q 422 588 416 600 q 410 612 401 621 q 392 630 380 634 q 368 640 353 640 q 332 640 315 631 q 298 622 287 608 q 275 593 269 573 q 262 554 262 531 q 262 507 271 481 q 280 456 302 428 l 450 236 q 466 266 478 298 q 490 330 496 365 q 498 376 504 384 q 510 390 522 390 l 606 390 q 598 324 573 264 q 549 204 512 154 l 632 0 l 528 0 q 514 0 503 2 q 493 4 485 8 q 476 12 470 18 q 463 25 456 34 l 430 68 q 383 32 330 12 q 276 -8 218 -8 q 172 -8 135 5 q 98 18 73 41 q 48 65 34 99 q 20 132 20 174 q 20 213 33 247 q 45 282 67 310 q 88 339 118 362 q 148 385 182 401 q 166 432 159 464 q 152 494 152 523 q 152 566 166 603 q 182 641 209 669 q 236 698 276 714 q 315 730 364 730 z m 143 190 q 143 142 169 114 q 194 87 243 87 q 279 87 312 101 q 345 116 374 141 l 226 336 q 182 308 162 270 q 143 233 143 190 z"},"_":{"x_min":0,"x_max":363,"ha":363,"o":"m 324 -69 l 314 -146 l -48 -146 l -39 -69 z"},"v":{"x_min":0,"x_max":499,"ha":499,"o":"m 36 513 l 136 513 q 150 513 157 506 q 165 500 167 490 l 221 216 q 226 192 228 167 q 230 143 232 119 q 238 143 247 167 q 255 190 266 216 l 389 490 q 394 500 403 506 q 412 513 423 513 l 520 513 l 268 0 l 164 0 z"},"O":{"x_min":0,"x_max":732,"ha":732,"o":"m 723 410 q 723 350 710 296 q 696 242 672 195 q 647 148 612 111 q 578 74 534 47 q 491 20 440 6 q 390 -8 334 -8 q 266 -8 210 16 q 156 41 117 84 q 78 127 58 186 q 37 244 37 312 q 37 372 50 427 q 64 481 88 528 q 113 574 148 612 q 182 649 226 676 q 269 702 320 717 q 370 731 426 731 q 495 731 550 706 q 605 682 644 639 q 682 596 702 537 q 723 478 723 410 z m 590 407 q 590 456 578 496 q 566 536 542 564 q 519 593 486 608 q 452 624 410 624 q 356 624 312 602 q 268 580 236 540 q 204 499 187 442 q 170 385 170 316 q 170 266 182 226 q 194 186 217 158 q 240 130 273 115 q 306 100 349 100 q 404 100 448 122 q 492 144 524 184 q 556 224 573 280 q 590 337 590 407 z"},"(":{"x_min":0,"x_max":276,"ha":276,"o":"m 151 216 q 151 182 154 144 q 156 105 162 66 q 168 28 176 -9 q 185 -46 197 -78 q 200 -86 200 -95 q 200 -106 195 -113 q 189 -120 180 -124 l 124 -156 q 104 -114 89 -68 q 74 -22 65 25 q 56 72 52 118 q 47 164 47 208 q 47 282 56 352 q 66 422 88 492 q 110 562 146 634 q 184 706 239 784 l 288 752 q 294 748 298 743 q 302 738 302 730 q 302 726 300 719 q 298 713 293 705 q 259 648 232 591 q 206 534 188 475 q 170 416 160 352 q 151 288 151 216 z"},"C":{"x_min":0,"x_max":604,"ha":604,"o":"m 339 102 q 370 102 392 107 q 415 112 432 119 q 448 126 460 135 q 472 143 482 150 q 490 158 498 163 q 504 168 512 168 q 518 168 522 165 q 526 162 528 160 l 574 104 q 526 50 463 21 q 400 -8 317 -8 q 250 -8 198 16 q 146 40 110 82 q 74 124 56 181 q 37 238 37 306 q 37 369 50 425 q 64 480 89 528 q 114 575 149 612 q 184 650 226 676 q 269 703 318 717 q 368 731 421 731 q 460 731 493 724 q 526 716 552 704 q 578 690 600 672 q 620 654 638 632 l 592 578 q 588 572 581 567 q 574 562 564 562 q 553 562 543 572 q 533 580 518 591 q 502 602 478 611 q 454 620 414 620 q 362 620 318 599 q 274 578 240 538 q 208 498 189 443 q 170 387 170 318 q 170 267 183 227 q 196 187 218 159 q 240 132 272 117 q 302 102 339 102 z"},"W":{"x_min":0,"x_max":966,"ha":966,"o":"m 64 723 l 166 723 q 183 723 193 715 q 204 706 206 694 l 269 250 q 272 234 272 216 q 273 197 274 176 q 287 218 300 250 l 480 694 q 485 704 498 714 q 510 723 526 723 l 556 723 q 574 723 584 715 q 594 706 597 694 l 669 250 q 672 234 674 216 q 676 198 677 178 q 682 198 688 216 q 694 234 700 250 l 871 694 q 876 705 889 714 q 902 723 918 723 l 1020 723 l 725 0 l 608 0 l 526 501 q 524 510 523 522 q 521 533 520 546 q 516 533 512 522 q 508 510 504 501 l 299 0 l 182 0 z"},"A":{"x_min":0,"x_max":642,"ha":642,"o":"m 618 0 l 518 0 q 501 0 491 8 q 481 16 478 30 l 448 180 l 179 180 l 112 30 q 106 18 94 9 q 82 0 66 0 l -36 0 l 314 723 l 446 723 z m 220 272 l 430 272 l 381 520 q 377 538 373 558 q 369 578 366 602 q 356 578 347 556 q 338 535 330 519 z"},"f":{"x_min":0,"x_max":320,"ha":320,"o":"m 217 420 l 168 21 l 143 -73 q 136 -98 121 -110 q 106 -124 80 -124 l 30 -124 l 96 420 l 56 428 q 45 430 38 436 q 31 442 31 454 q 31 454 31 456 q 32 457 32 462 q 32 468 34 478 q 35 489 38 508 l 106 508 l 111 546 q 116 590 134 626 q 152 660 179 685 q 206 710 242 722 q 278 736 318 736 q 350 736 378 726 l 366 662 q 366 656 362 653 q 358 650 352 648 q 347 647 340 646 q 334 646 326 646 q 306 646 290 640 q 273 635 260 623 q 248 610 239 591 q 231 571 228 542 l 224 508 l 338 508 l 327 420 z"},"Q":{"x_min":0,"x_max":732,"ha":732,"o":"m 723 410 q 723 352 711 300 q 698 248 676 202 q 652 157 620 120 q 588 82 548 56 l 692 -142 l 586 -142 q 562 -142 545 -136 q 527 -130 514 -112 l 432 4 q 408 -2 384 -5 q 360 -8 334 -8 q 266 -8 210 16 q 156 41 117 84 q 78 127 58 186 q 37 244 37 312 q 37 372 50 427 q 64 481 88 528 q 113 574 148 612 q 182 649 226 676 q 269 702 320 717 q 370 731 426 731 q 495 731 550 706 q 605 682 644 639 q 682 596 702 537 q 723 478 723 410 z m 590 407 q 590 456 578 496 q 566 536 542 564 q 519 593 486 608 q 452 624 410 624 q 356 624 312 602 q 268 580 236 540 q 204 499 187 442 q 170 385 170 316 q 170 266 182 226 q 194 186 217 158 q 240 130 273 115 q 306 100 349 100 q 404 100 448 122 q 492 144 524 184 q 556 224 573 280 q 590 337 590 407 z"},"w":{"x_min":0,"x_max":736,"ha":736,"o":"m 40 513 l 133 513 q 146 513 154 506 q 163 500 164 490 l 194 216 q 196 194 197 172 q 197 152 198 130 q 206 152 214 172 q 222 194 231 216 l 342 491 q 346 501 356 508 q 364 514 376 514 l 428 514 q 442 514 449 508 q 456 501 458 491 l 501 216 q 504 194 507 172 q 510 152 512 130 q 517 152 523 172 q 530 194 538 216 l 638 490 q 641 500 650 506 q 659 513 670 513 l 760 513 l 549 0 l 454 0 q 438 0 434 22 l 386 318 q 382 338 381 357 q 378 347 374 337 q 370 328 366 318 l 244 22 q 236 0 218 0 l 126 0 z"},"-":{"x_min":0,"x_max":332,"ha":332,"o":"m 59 352 l 300 352 l 287 252 l 47 252 z"},"E":{"x_min":0,"x_max":526,"ha":526,"o":"m 546 723 l 532 620 l 242 620 l 216 414 l 445 414 l 432 314 l 204 314 l 178 104 l 470 104 l 457 0 l 35 0 l 124 723 z"},"s":{"x_min":0,"x_max":394,"ha":394,"o":"m 368 416 q 362 408 357 405 q 352 402 344 402 q 336 402 326 407 q 318 412 306 418 q 294 424 279 430 q 264 434 242 434 q 202 434 182 417 q 160 399 160 372 q 160 357 169 346 q 178 336 192 328 q 206 320 224 313 q 242 306 261 298 q 280 290 298 281 q 316 271 330 257 q 344 243 353 223 q 362 204 362 176 q 362 139 347 106 q 332 72 304 47 q 277 22 238 7 q 199 -8 151 -8 q 126 -8 104 -3 q 81 2 61 10 q 41 18 25 30 q 8 42 -3 55 l 27 102 q 32 110 40 115 q 48 120 58 120 q 69 120 78 113 q 86 106 98 99 q 109 91 125 84 q 142 78 167 78 q 188 78 203 84 q 219 89 230 98 q 240 108 246 120 q 252 133 252 147 q 252 164 243 175 q 234 186 220 195 q 206 203 188 209 q 170 216 151 222 q 132 230 115 238 q 97 248 83 261 q 68 275 60 295 q 52 314 52 343 q 52 377 64 409 q 78 442 103 466 q 128 491 165 506 q 202 521 249 521 q 298 521 336 504 q 374 488 400 462 z"},">":{"x_min":0,"x_max":534,"ha":534,"o":"m 478 312 l 56 106 l 68 194 q 68 204 74 212 q 80 220 93 226 l 286 319 q 298 325 312 329 q 325 334 340 337 q 326 340 314 345 q 302 349 290 355 l 120 448 q 110 454 106 461 q 102 468 102 476 q 102 476 102 478 q 102 480 104 490 q 104 498 107 517 q 110 536 114 569 l 484 362 z"},"l":{"x_min":0,"x_max":252,"ha":252,"o":"m 34 0 l 124 743 l 245 743 l 155 0 z"},"8":{"x_min":0,"x_max":580,"ha":580,"o":"m 259 -8 q 208 -8 166 5 q 124 18 94 43 q 64 68 48 102 q 32 136 32 178 q 32 252 71 304 q 109 354 188 377 q 143 397 121 432 q 99 467 99 514 q 99 560 118 600 q 137 640 170 668 q 204 698 250 714 q 296 730 350 730 q 396 730 434 717 q 471 704 498 680 q 524 656 538 625 q 553 594 553 557 q 553 492 521 446 q 488 400 426 376 q 482 356 510 318 q 537 280 537 226 q 537 172 516 129 q 495 86 458 56 q 421 25 370 8 q 319 -8 259 -8 z m 270 86 q 304 86 331 96 q 358 106 376 124 q 395 142 404 168 q 414 194 414 224 q 414 250 406 269 q 398 288 383 301 q 368 314 347 320 q 326 327 300 327 q 267 327 241 318 q 214 308 196 291 q 177 274 167 248 q 157 222 157 188 q 157 166 164 147 q 172 128 186 115 q 200 101 221 93 q 242 86 270 86 z m 311 420 q 348 420 372 432 q 396 444 410 463 q 424 482 430 504 q 436 527 436 548 q 436 567 430 584 q 424 600 413 612 q 401 625 383 632 q 364 640 339 640 q 308 640 284 630 q 261 620 246 603 q 230 586 222 564 q 214 542 214 516 q 214 498 220 480 q 224 463 236 450 q 248 436 266 428 q 284 420 311 420 z"},"\\":{"x_min":0,"x_max":361,"ha":361,"o":"m 52 728 l 102 728 q 124 728 138 716 q 154 706 158 686 l 329 -48 l 279 -48 q 260 -48 243 -37 q 226 -26 221 -4 z"},"e":{"x_min":0,"x_max":475,"ha":475,"o":"m 460 394 q 460 360 446 331 q 432 302 397 280 q 362 258 301 241 q 240 225 146 216 l 146 209 q 146 88 248 88 q 271 88 288 92 q 304 96 317 102 q 330 108 340 116 q 350 124 359 130 q 368 136 376 140 q 385 144 395 144 q 401 144 407 141 q 413 138 417 133 l 448 95 q 422 68 396 49 q 371 30 344 17 q 318 4 288 -2 q 259 -8 224 -8 q 179 -8 142 8 q 106 23 80 51 q 54 78 40 118 q 26 157 26 206 q 26 246 34 285 q 43 324 60 359 q 76 394 100 424 q 124 453 154 474 q 184 496 221 508 q 257 520 298 520 q 339 520 369 508 q 400 497 420 479 q 440 460 450 438 q 460 416 460 394 z m 292 434 q 266 434 245 424 q 224 414 206 395 q 189 376 176 351 q 164 325 156 294 q 218 303 256 313 q 294 323 314 335 q 335 347 342 360 q 348 374 348 390 q 348 397 345 405 q 342 413 335 419 q 328 426 318 430 q 307 434 292 434 z"},"b":{"x_min":0,"x_max":540,"ha":540,"o":"m 31 0 l 122 743 l 242 743 l 202 412 q 238 462 282 492 q 326 521 376 521 q 408 521 434 509 q 460 498 479 474 q 498 450 508 414 q 518 378 518 330 q 518 286 508 244 q 500 202 483 165 q 466 128 444 96 q 421 64 393 42 q 365 18 333 6 q 302 -8 268 -8 q 228 -8 197 8 q 166 24 146 51 l 142 34 q 138 16 128 8 q 118 0 98 0 z m 328 424 q 308 424 286 410 q 266 396 246 372 q 226 347 209 314 q 192 280 180 242 l 166 120 q 182 102 204 94 q 226 86 248 86 q 281 86 308 107 q 335 128 354 160 q 374 194 384 235 q 394 276 394 318 q 394 372 377 398 q 360 424 328 424 z"},"%":{"x_min":0,"x_max":742,"ha":742,"o":"m 376 575 q 376 527 361 489 q 346 450 320 424 q 295 397 263 383 q 230 368 197 368 q 167 368 142 379 q 117 390 100 410 q 82 430 72 458 q 62 486 62 522 q 62 569 76 608 q 90 646 115 673 q 139 700 172 715 q 204 730 242 730 q 272 730 296 719 q 322 708 339 688 q 357 668 367 639 q 376 610 376 575 z m 284 574 q 284 616 269 634 q 254 652 232 652 q 216 652 201 645 q 187 638 176 622 q 166 606 160 582 q 154 557 154 522 q 154 501 158 486 q 162 472 169 463 q 176 454 186 450 q 195 446 206 446 q 222 446 237 453 q 251 460 262 475 q 272 490 278 514 q 284 539 284 574 z m 612 704 q 620 710 629 716 q 638 722 654 722 l 740 722 l 157 18 q 150 10 141 5 q 132 0 118 0 l 30 0 z m 708 198 q 708 150 692 111 q 676 73 652 46 q 626 20 594 5 q 562 -9 528 -9 q 498 -9 473 2 q 448 13 430 33 q 413 52 403 81 q 394 109 394 144 q 394 192 408 230 q 422 269 446 296 q 470 323 503 338 q 536 352 572 352 q 602 352 628 342 q 652 330 670 310 q 688 290 698 262 q 708 233 708 198 z m 616 197 q 616 239 600 257 q 586 274 563 274 q 546 274 532 267 q 518 260 508 244 q 497 228 491 204 q 486 179 486 144 q 486 103 500 86 q 514 68 538 68 q 554 68 568 75 q 582 82 593 97 q 604 112 610 137 q 616 162 616 197 z"},"m":{"x_min":0,"x_max":792,"ha":792,"o":"m 27 0 l 90 514 l 152 514 q 171 514 182 504 q 193 496 193 476 q 193 476 193 474 q 193 474 193 468 q 192 462 192 450 q 192 438 190 417 q 225 470 266 495 q 306 521 350 521 q 398 521 425 490 q 452 458 456 398 q 492 462 536 491 q 580 521 632 521 q 689 521 720 482 q 752 444 752 370 q 752 360 751 349 q 750 338 749 326 l 710 0 l 588 0 q 598 85 606 144 q 612 204 617 243 q 622 283 624 306 q 626 328 628 340 q 629 352 629 357 q 630 361 630 364 q 630 394 620 407 q 610 420 587 420 q 568 420 550 410 q 532 400 516 381 q 500 362 486 334 q 472 307 462 272 l 430 0 l 308 0 l 346 326 q 348 337 348 346 q 349 356 349 364 q 349 394 339 407 q 330 420 307 420 q 288 420 269 410 q 250 399 234 379 q 218 360 204 331 q 190 303 180 268 l 148 0 z"},"#":{"x_min":0,"x_max":580,"ha":580,"o":"m 404 204 l 341 0 l 286 0 q 273 0 264 10 q 256 19 256 34 q 256 40 258 50 l 307 204 l 202 204 l 152 44 q 145 20 128 10 q 112 0 93 0 l 40 0 l 104 204 l 44 204 q 31 204 24 210 q 16 216 16 230 q 16 238 20 253 l 30 290 l 126 290 l 170 432 l 62 432 l 78 482 q 83 500 96 509 q 110 518 136 518 l 194 518 l 245 682 q 251 701 266 712 q 282 722 301 722 l 356 722 l 291 518 l 396 518 l 460 722 l 514 722 q 528 722 538 714 q 548 706 548 692 q 548 686 546 680 l 494 518 l 596 518 l 580 468 q 574 450 562 441 q 550 432 524 432 l 471 432 l 427 290 l 500 290 q 514 290 522 285 q 530 280 530 266 q 530 257 526 242 l 514 204 z m 224 290 l 330 290 l 374 432 l 268 432 z"},",":{"x_min":0,"x_max":225,"ha":225,"o":"m 20 76 q 20 90 25 102 q 30 114 40 124 q 50 133 63 138 q 76 144 92 144 q 111 144 125 137 q 140 130 149 118 q 158 106 163 91 q 168 76 168 59 q 168 35 160 8 q 153 -18 139 -44 q 125 -71 104 -96 q 84 -121 57 -142 l 36 -122 q 26 -115 26 -104 q 26 -97 35 -87 q 44 -78 54 -65 q 65 -52 76 -36 q 86 -19 90 2 q 74 2 62 7 q 49 13 40 23 q 30 33 25 46 q 20 60 20 76 z"},"n":{"x_min":0,"x_max":540,"ha":540,"o":"m 27 0 l 88 514 l 152 514 q 171 514 182 504 q 192 494 192 474 l 189 407 q 228 464 276 493 q 323 521 374 521 q 402 521 425 511 q 448 500 465 481 q 482 461 490 432 q 500 404 500 366 q 500 356 499 347 q 498 337 497 326 l 458 0 l 335 0 q 345 84 352 143 q 359 202 364 241 q 368 280 370 302 q 373 324 374 336 q 376 348 376 351 q 376 355 376 358 q 376 390 364 405 q 352 420 326 420 q 306 420 284 408 q 262 396 242 374 q 222 352 206 321 q 189 290 178 252 l 150 0 z"},"h":{"x_min":0,"x_max":544,"ha":544,"o":"m 31 0 l 122 743 l 244 743 l 206 426 q 244 474 287 498 q 331 521 376 521 q 406 521 429 511 q 452 500 469 481 q 486 461 494 432 q 504 404 504 366 q 504 356 503 347 q 502 337 501 326 l 462 0 l 339 0 l 378 326 q 378 336 379 344 q 380 352 380 358 q 380 392 368 406 q 355 420 330 420 q 310 420 290 410 q 270 399 250 379 q 232 360 215 332 q 198 304 187 269 l 154 0 z"},"z":{"x_min":0,"x_max":440,"ha":440,"o":"m 436 462 q 434 449 429 436 q 424 424 416 416 l 159 95 l 384 95 l 374 0 l 0 0 l 7 52 q 8 60 13 72 q 18 84 27 94 l 286 418 l 65 418 l 76 513 l 442 513 z"},"B":{"x_min":0,"x_max":600,"ha":600,"o":"m 35 0 l 124 723 l 356 723 q 416 723 459 711 q 502 700 529 678 q 556 656 569 626 q 582 596 582 558 q 582 527 574 499 q 566 470 548 446 q 530 422 504 404 q 476 384 439 372 q 500 356 530 322 q 560 287 560 234 q 560 184 542 141 q 524 98 488 67 q 454 36 403 18 q 353 0 290 0 z m 204 318 l 177 101 l 300 101 q 334 101 360 110 q 384 120 401 137 q 417 154 425 179 q 432 203 432 232 q 432 272 408 295 q 382 318 326 318 z m 214 408 l 310 408 q 378 408 414 440 q 450 471 450 536 q 450 582 424 602 q 398 623 344 623 l 241 623 z"},"K":{"x_min":0,"x_max":645,"ha":645,"o":"m 219 418 l 247 418 q 264 418 277 423 q 289 428 299 440 l 508 695 q 521 711 536 717 q 550 723 570 723 l 681 723 l 425 420 q 414 407 403 398 q 392 388 380 382 q 395 376 406 366 q 416 356 426 338 l 609 0 l 495 0 q 484 0 476 2 q 468 4 462 7 q 456 10 452 15 q 448 20 446 26 l 296 295 q 290 308 278 314 q 268 320 246 320 l 207 320 l 168 0 l 38 0 l 127 724 l 257 724 z"},"R":{"x_min":0,"x_max":604,"ha":604,"o":"m 202 285 l 168 0 l 38 0 l 127 723 l 332 723 q 395 723 440 710 q 484 696 512 673 q 541 649 554 616 q 568 583 568 544 q 568 502 556 465 q 544 428 522 398 q 500 368 468 346 q 436 323 396 310 q 408 304 417 294 q 426 284 434 270 l 562 0 l 446 0 q 430 0 418 7 q 407 14 402 26 l 296 260 q 290 274 281 279 q 272 285 254 285 z m 244 623 l 214 378 l 289 378 q 328 378 356 389 q 384 400 403 420 q 421 440 430 466 q 439 492 439 523 q 439 570 410 596 q 381 623 320 623 z"},"T":{"x_min":0,"x_max":548,"ha":548,"o":"m 596 723 l 582 616 l 384 616 l 308 0 l 180 0 l 255 616 l 56 616 l 70 723 z"},"P":{"x_min":0,"x_max":578,"ha":578,"o":"m 199 256 l 168 0 l 38 0 l 127 723 l 347 723 q 408 723 453 708 q 497 694 526 667 q 554 640 568 604 q 582 568 582 524 q 582 466 563 417 q 545 368 508 332 q 472 296 417 276 q 362 256 290 256 z m 244 623 l 212 357 l 302 357 q 340 357 368 368 q 396 380 415 401 q 434 422 442 450 q 451 478 451 513 q 451 538 444 558 q 437 578 422 593 q 408 607 386 615 q 364 623 334 623 z"},"|":{"x_min":0,"x_max":300,"ha":300,"o":"m 72 774 l 168 774 l 168 -168 l 72 -168 z"},"t":{"x_min":0,"x_max":356,"ha":356,"o":"m 74 104 q 74 108 74 113 q 74 118 75 127 q 76 136 78 151 q 80 166 82 190 l 111 420 l 62 420 q 54 420 49 426 q 44 431 44 442 q 44 442 44 444 q 44 445 44 450 q 45 456 46 466 q 48 476 50 496 l 128 509 l 168 649 q 172 659 179 664 q 186 670 196 670 l 262 670 l 242 508 l 366 508 l 356 420 l 232 420 l 204 197 q 202 176 200 164 q 199 152 198 146 q 198 139 197 136 q 197 134 197 132 q 197 114 206 102 q 216 92 232 92 q 243 92 250 94 q 258 97 264 100 q 269 103 273 106 q 278 108 282 108 q 287 108 290 106 q 294 103 296 98 l 322 38 q 295 15 262 4 q 228 -8 194 -8 q 140 -8 108 22 q 76 51 74 104 z"},"M":{"x_min":0,"x_max":858,"ha":858,"o":"m 412 289 q 417 276 420 262 q 424 249 428 235 q 434 249 440 262 q 448 276 456 289 l 706 702 q 711 710 716 714 q 720 718 726 720 q 731 722 738 722 q 744 723 752 723 l 851 723 l 762 0 l 648 0 l 706 471 q 708 484 710 500 q 714 515 717 531 l 468 118 q 460 104 447 97 q 434 90 420 90 l 402 90 q 386 90 375 97 q 364 104 359 118 l 210 530 q 210 514 209 500 q 208 485 206 473 l 150 0 l 35 0 l 124 723 l 222 723 q 230 723 236 722 q 243 722 248 720 q 253 718 256 714 q 260 710 263 702 l 412 289 z"},"g":{"x_min":0,"x_max":487,"ha":487,"o":"m 431 364 q 431 342 426 323 q 421 305 414 290 q 406 274 398 260 q 390 246 382 232 q 374 218 370 202 q 365 186 365 168 q 365 147 374 130 q 382 112 392 94 q 402 76 410 56 q 419 36 419 8 q 419 -30 402 -64 q 385 -98 353 -124 q 321 -150 275 -164 q 229 -180 171 -180 q 124 -180 86 -170 q 48 -160 21 -142 q -6 -125 -20 -101 q -34 -78 -34 -49 q -34 -6 -12 22 q 9 52 43 69 q 77 87 119 95 q 162 102 204 102 q 224 102 244 101 q 263 99 280 96 q 278 104 277 112 q 276 120 276 129 q 276 158 292 193 q 273 180 249 173 q 225 166 191 166 q 162 166 136 176 q 110 185 90 204 q 70 224 58 253 q 46 282 46 322 q 46 359 60 395 q 74 430 102 459 q 129 487 170 504 q 210 521 264 521 q 292 521 318 514 q 344 508 365 494 l 508 494 l 503 454 q 501 442 495 434 q 490 426 478 422 l 426 408 q 428 398 430 388 q 431 376 431 364 z m 226 240 q 248 240 266 251 q 282 262 294 278 q 306 296 312 317 q 318 338 318 360 q 318 398 300 418 q 283 438 250 438 q 227 438 210 428 q 193 418 182 402 q 170 386 164 364 q 158 344 158 321 q 158 282 176 262 q 193 240 226 240 z m 306 -2 q 306 5 306 12 q 305 18 304 24 q 277 29 254 31 q 232 33 212 33 q 178 33 153 28 q 129 22 113 13 q 98 4 90 -8 q 83 -20 83 -34 q 83 -64 107 -79 q 131 -94 181 -94 q 209 -94 232 -88 q 255 -80 272 -68 q 288 -56 297 -38 q 306 -22 306 -2 z"},"j":{"x_min":0,"x_max":255,"ha":255,"o":"m 222 513 l 156 -18 q 152 -51 140 -80 q 127 -110 106 -132 q 84 -154 54 -167 q 24 -180 -16 -180 q -35 -180 -49 -178 q -64 -176 -78 -170 l -66 -104 q -62 -94 -56 -91 q -50 -88 -32 -88 q -16 -88 -4 -85 q 8 -81 16 -73 q 24 -64 28 -51 q 33 -38 36 -18 l 100 513 z m 248 662 q 248 646 242 632 q 235 618 224 608 q 214 598 200 591 q 186 585 170 585 q 156 585 142 591 q 128 598 118 608 q 108 618 101 632 q 95 646 95 662 q 95 678 102 693 q 108 708 118 718 q 129 729 143 735 q 156 742 171 742 q 186 742 200 735 q 214 729 225 718 q 236 708 242 694 q 248 679 248 662 z"},"i":{"x_min":0,"x_max":260,"ha":260,"o":"m 222 513 l 160 0 l 38 0 l 100 513 z m 252 662 q 252 646 246 632 q 239 618 228 608 q 218 598 204 591 q 190 585 174 585 q 160 585 146 591 q 132 598 122 608 q 112 618 105 632 q 99 646 99 662 q 99 678 106 693 q 112 708 122 718 q 133 729 147 735 q 160 742 175 742 q 190 742 204 735 q 218 729 229 718 q 240 708 246 694 q 252 679 252 662 z"},"y":{"x_min":0,"x_max":499,"ha":499,"o":"m 186 -142 q 174 -168 146 -168 l 55 -168 l 169 39 l 40 513 l 143 513 q 156 513 163 506 q 170 500 172 490 l 236 224 q 238 211 240 198 q 242 186 243 173 q 248 186 254 199 q 260 212 266 224 l 392 490 q 398 500 407 507 q 416 513 426 513 l 526 513 z"},"@":{"x_min":0,"x_max":746,"ha":746,"o":"m 510 92 q 479 92 456 108 q 434 124 428 159 q 397 123 364 108 q 332 92 296 92 q 271 92 252 102 q 234 110 222 126 q 209 142 203 164 q 197 186 197 211 q 197 242 205 273 q 213 305 229 335 q 244 365 268 391 q 291 418 322 437 q 352 457 390 468 q 428 480 472 480 q 490 480 506 478 q 520 477 534 474 q 546 472 558 468 q 570 464 581 458 l 514 273 q 505 250 502 234 q 499 217 499 205 q 499 182 510 174 q 520 166 536 166 q 559 166 580 183 q 600 200 616 230 q 632 260 641 301 q 650 342 650 390 q 650 444 635 486 q 620 528 592 556 q 564 584 523 598 q 483 613 434 613 q 390 613 349 600 q 308 587 273 563 q 238 539 209 505 q 180 472 160 430 q 140 388 128 339 q 117 290 117 236 q 117 168 136 116 q 154 64 188 29 q 222 -6 270 -25 q 318 -43 375 -43 q 410 -43 441 -39 q 472 -35 497 -28 q 522 -22 542 -13 q 562 -4 576 4 q 584 8 590 10 q 596 11 600 11 q 611 11 616 5 q 622 -1 624 -10 l 634 -44 q 582 -78 515 -99 q 448 -120 366 -120 q 290 -120 228 -96 q 166 -71 122 -25 q 78 20 54 86 q 30 150 30 232 q 30 294 46 352 q 60 410 88 462 q 114 512 152 554 q 190 596 236 626 q 282 656 334 672 q 387 689 443 689 q 504 689 556 668 q 610 648 649 609 q 689 570 712 514 q 735 459 735 390 q 735 327 717 273 q 700 218 669 178 q 638 138 598 115 q 557 92 510 92 z m 330 170 q 342 170 354 174 q 366 178 377 188 q 389 199 400 217 q 411 234 421 261 l 472 403 q 459 406 444 406 q 414 406 386 390 q 358 375 337 350 q 316 324 303 291 q 290 258 290 224 q 290 198 300 184 q 310 170 330 170 z"},".":{"x_min":0,"x_max":225,"ha":225,"o":"m 17 68 q 17 84 23 98 q 28 112 39 122 q 49 132 63 138 q 76 144 92 144 q 108 144 122 138 q 136 132 146 122 q 156 112 162 98 q 168 84 168 68 q 168 52 162 38 q 156 24 146 14 q 136 4 122 -1 q 108 -7 92 -7 q 76 -7 63 -1 q 49 4 39 14 q 28 24 23 38 q 17 52 17 68 z"},"p":{"x_min":0,"x_max":532,"ha":532,"o":"m 6 -168 l 90 514 l 152 514 q 169 514 181 506 q 193 499 193 482 q 193 482 193 481 q 193 480 192 472 q 192 464 192 447 q 191 430 190 400 q 226 456 273 488 q 320 521 372 521 q 404 521 430 509 q 456 498 475 474 q 494 450 504 414 q 514 378 514 330 q 514 286 504 244 q 496 202 479 165 q 462 128 440 96 q 417 64 389 42 q 361 18 329 6 q 298 -8 264 -8 q 229 -8 201 5 q 172 17 152 39 l 126 -168 z m 324 424 q 304 424 282 410 q 262 396 242 372 q 222 348 206 315 q 189 282 177 244 l 162 120 q 179 102 201 94 q 222 86 244 86 q 277 86 304 107 q 331 128 350 160 q 370 194 380 235 q 390 276 390 318 q 390 372 373 398 q 356 424 324 424 z"},"X":{"x_min":0,"x_max":630,"ha":630,"o":"m 242 386 l 80 723 l 198 723 q 210 723 216 719 q 222 716 226 706 l 337 457 q 342 468 349 478 l 502 705 q 514 723 532 723 l 668 723 l 422 392 l 603 0 l 487 0 q 474 0 467 7 q 460 14 456 22 l 330 312 q 328 308 325 304 q 323 300 320 296 l 134 22 q 125 10 115 5 q 105 0 93 0 l -36 0 z"},"*":{"x_min":0,"x_max":368,"ha":368,"o":"m 174 420 l 186 512 q 186 522 189 531 q 191 540 195 548 q 188 542 181 537 q 174 532 165 526 l 88 480 l 66 528 l 143 574 q 152 580 162 584 q 171 588 180 588 q 162 592 146 602 l 80 650 l 114 698 l 180 650 q 188 645 194 640 q 201 634 206 628 q 204 632 204 638 q 203 642 203 648 q 203 652 203 656 q 204 660 204 664 l 216 757 l 272 757 l 261 665 q 260 655 258 646 q 255 637 251 629 q 256 634 264 639 q 270 644 278 648 l 359 698 l 381 649 l 304 602 q 286 592 267 588 q 276 587 284 584 q 292 580 300 574 l 366 528 l 332 480 l 266 526 q 259 532 252 537 q 246 542 241 548 q 244 537 244 527 q 244 524 243 520 q 243 516 242 513 l 230 420 z"},"Y":{"x_min":0,"x_max":606,"ha":606,"o":"m 372 282 l 338 0 l 208 0 l 242 282 l 54 723 l 170 723 q 187 723 196 715 q 205 706 210 694 l 304 444 q 310 426 315 408 q 319 391 322 374 q 330 391 339 408 q 348 425 360 444 l 516 694 q 522 705 534 714 q 545 723 562 723 l 669 723 z"},"c":{"x_min":0,"x_max":438,"ha":438,"o":"m 420 91 q 394 63 371 44 q 348 25 324 14 q 300 2 274 -3 q 247 -8 216 -8 q 171 -8 136 8 q 100 23 76 51 q 52 79 39 118 q 26 158 26 206 q 26 269 46 326 q 66 382 102 426 q 138 469 188 495 q 237 520 296 520 q 346 520 382 502 q 418 484 446 448 l 406 402 q 402 397 396 393 q 390 390 384 390 q 375 390 368 395 q 361 400 352 406 q 342 412 329 417 q 315 422 293 422 q 264 422 238 407 q 212 392 193 363 q 173 334 161 294 q 150 254 150 206 q 150 150 174 119 q 200 88 242 88 q 270 88 289 96 q 308 104 321 114 q 334 124 344 132 q 354 140 366 140 q 372 140 378 137 q 384 134 388 129 l 420 91 z"},"!":{"x_min":0,"x_max":334,"ha":334,"o":"m 283 723 l 248 436 q 242 391 232 347 q 222 304 210 254 l 129 254 q 129 264 129 274 q 128 284 128 293 q 128 330 130 366 q 132 400 136 436 l 172 723 z m 77 68 q 77 84 83 98 q 88 112 98 122 q 108 132 122 138 q 136 144 152 144 q 168 144 182 138 q 196 132 206 122 q 216 112 222 98 q 228 84 228 68 q 228 52 222 38 q 216 24 206 14 q 196 4 182 -1 q 168 -7 152 -7 q 136 -7 122 -1 q 108 4 98 14 q 88 24 83 38 q 77 52 77 68 z"},"/":{"x_min":0,"x_max":362,"ha":362,"o":"m 76 -4 q 65 -26 45 -37 q 26 -48 8 -48 l -44 -48 l 308 686 q 318 706 335 717 q 352 728 374 728 l 424 728 z"},"[":{"x_min":0,"x_max":276,"ha":276,"o":"m 2 -152 l 116 772 l 307 772 l 302 726 q 300 714 290 704 q 280 696 266 696 l 206 696 l 110 -76 l 172 -76 q 184 -76 192 -82 q 200 -88 200 -100 l 194 -152 z"},"6":{"x_min":0,"x_max":580,"ha":580,"o":"m 359 450 q 397 450 431 438 q 466 426 492 402 q 518 378 533 343 q 548 308 548 262 q 548 206 526 157 q 504 108 466 71 q 428 34 376 13 q 324 -8 262 -8 q 210 -8 169 8 q 128 24 100 53 q 72 82 57 122 q 42 162 42 210 q 42 242 49 273 q 56 304 71 335 q 85 366 106 397 q 128 428 156 461 l 359 694 q 369 706 387 714 q 405 722 426 722 l 532 722 l 286 459 l 256 426 q 278 438 304 444 q 330 450 359 450 z m 155 206 q 155 180 162 158 q 170 137 185 122 q 200 106 221 98 q 243 89 272 89 q 304 89 333 101 q 362 112 382 133 q 404 154 416 182 q 428 210 428 244 q 428 270 419 292 q 410 314 395 329 q 379 344 357 352 q 335 360 308 360 q 274 360 246 349 q 218 337 198 316 q 178 296 166 267 q 155 239 155 206 z"},"r":{"x_min":0,"x_max":366,"ha":366,"o":"m 27 0 l 90 514 l 152 514 q 170 514 182 506 q 193 498 193 480 q 193 480 193 478 q 193 476 192 468 q 192 460 192 441 q 191 423 190 390 q 221 450 258 484 q 296 516 336 516 q 357 516 378 508 l 356 390 q 330 400 308 400 q 264 400 230 358 q 196 315 175 224 l 148 0 z"},"2":{"x_min":0,"x_max":580,"ha":580,"o":"m 357 730 q 402 730 440 718 q 476 704 503 681 q 529 658 543 624 q 558 590 558 550 q 558 505 544 468 q 530 430 506 396 q 482 363 450 332 q 418 300 382 267 l 196 97 q 220 104 243 107 q 266 111 286 111 l 479 111 q 496 111 506 102 q 516 92 516 76 q 516 76 516 74 q 516 72 515 65 q 514 58 512 42 q 510 27 507 0 l 14 0 l 18 40 q 20 51 26 64 q 33 78 46 89 l 294 310 q 330 342 356 370 q 382 398 400 426 q 417 452 426 480 q 434 507 434 538 q 434 582 408 606 q 382 630 338 630 q 315 630 295 624 q 276 618 260 606 q 244 594 231 578 q 219 562 211 544 q 204 525 192 517 q 180 509 164 509 q 156 509 148 510 l 86 522 q 100 573 126 612 q 152 652 188 678 q 224 704 266 717 q 310 730 357 730 z"},"{":{"x_min":0,"x_max":276,"ha":276,"o":"m 62 220 q 62 244 51 260 q 40 276 16 276 l 24 344 q 61 344 76 375 q 90 406 90 470 q 90 478 90 488 q 89 498 89 510 q 88 521 88 532 q 88 542 88 551 q 88 604 100 645 q 112 686 136 715 q 160 743 197 758 q 234 772 284 772 l 308 772 l 302 719 q 300 713 298 708 q 294 704 290 701 q 286 698 282 697 q 277 696 274 696 l 270 696 q 237 696 218 672 q 199 648 195 604 q 192 578 192 555 q 192 532 192 509 q 192 487 191 466 q 190 444 188 423 q 186 402 180 384 q 173 366 162 351 q 150 336 136 325 q 120 314 102 310 q 132 300 147 275 q 162 250 162 218 q 162 190 156 162 q 150 134 142 106 q 134 78 127 50 q 120 22 120 -8 q 120 -38 134 -57 q 148 -76 175 -76 l 179 -76 q 186 -76 194 -81 q 201 -86 201 -97 q 201 -98 201 -99 q 201 -100 200 -105 q 200 -110 198 -122 q 197 -132 194 -152 l 170 -152 q 130 -152 102 -142 q 72 -132 54 -113 q 35 -94 26 -68 q 16 -42 16 -10 q 16 22 24 52 q 31 81 40 109 q 48 137 55 164 q 62 192 62 220 z"},"9":{"x_min":0,"x_max":580,"ha":580,"o":"m 272 290 q 237 290 205 301 q 173 312 148 335 q 124 358 110 392 q 95 425 95 470 q 95 524 116 571 q 137 618 174 654 q 211 690 262 710 q 312 730 371 730 q 421 730 460 715 q 500 700 527 672 q 554 645 569 607 q 583 569 583 524 q 583 486 575 452 q 568 419 553 388 q 539 357 518 327 q 497 296 471 265 l 275 28 q 265 16 248 8 q 232 0 210 0 l 101 0 l 360 281 q 370 292 379 302 q 388 313 396 324 q 369 306 338 298 q 306 290 272 290 z m 470 522 q 470 548 462 568 q 454 589 439 603 q 424 618 403 625 q 382 633 358 633 q 326 633 300 622 q 274 611 256 592 q 237 572 226 545 q 216 518 216 486 q 216 434 244 407 q 272 380 324 380 q 358 380 385 390 q 412 402 431 421 q 450 440 460 466 q 470 492 470 522 z"}," ":{"x_min":0,"x_max":193,"ha":193,"o":""},"I":{"x_min":0,"x_max":290,"ha":290,"o":"m 180 0 l 50 0 l 138 723 l 268 723 z"},"H":{"x_min":0,"x_max":696,"ha":696,"o":"m 600 0 l 470 0 l 508 318 l 204 318 l 166 0 l 35 0 l 124 723 l 254 723 l 216 410 l 520 410 l 559 723 l 690 723 z"},"4":{"x_min":0,"x_max":580,"ha":580,"o":"m 476 270 l 566 270 l 556 202 q 556 192 548 185 q 541 178 529 178 l 464 178 l 442 0 l 334 0 l 356 178 l 56 178 q 44 178 32 186 q 21 193 20 204 l 15 264 l 414 724 l 530 724 z m 398 516 q 402 544 410 580 l 146 270 l 368 270 z"},"~":{"x_min":0,"x_max":580,"ha":580,"o":"m 342 324 q 370 324 386 342 q 402 360 402 392 l 501 392 q 501 354 491 323 q 480 292 461 269 q 442 247 414 235 q 386 223 350 223 q 324 223 299 230 q 275 237 253 245 q 232 254 212 260 q 194 268 178 268 q 150 268 134 250 q 118 232 118 199 l 19 199 q 19 238 29 269 q 40 300 59 322 q 78 344 106 356 q 134 368 170 368 q 196 368 221 362 q 245 354 267 346 q 288 338 308 331 q 326 324 342 324 z"},"D":{"x_min":0,"x_max":687,"ha":687,"o":"m 677 410 q 677 320 648 244 q 619 169 567 115 q 516 60 444 30 q 374 0 290 0 l 35 0 l 124 723 l 379 723 q 448 723 503 700 q 558 676 597 634 q 636 593 656 536 q 677 478 677 410 z m 544 407 q 544 456 532 495 q 520 534 497 562 q 474 590 442 605 q 408 620 366 620 l 242 620 l 178 104 l 302 104 q 357 104 402 124 q 446 146 478 185 q 510 224 527 280 q 544 336 544 407 z"},"^":{"x_min":0,"x_max":580,"ha":580,"o":"m 541 388 l 450 388 q 439 388 432 394 q 424 400 420 409 l 340 554 q 333 568 327 580 q 320 593 316 606 q 312 592 306 580 q 301 567 294 554 l 216 409 q 212 400 204 394 q 196 388 183 388 l 88 388 l 274 723 l 354 723 z"},"0":{"x_min":0,"x_max":580,"ha":580,"o":"m 348 730 q 397 730 438 712 q 478 694 508 657 q 537 620 553 565 q 570 510 570 436 q 570 324 545 240 q 520 156 478 101 q 436 46 378 19 q 322 -8 256 -8 q 208 -8 167 10 q 126 29 97 66 q 68 102 51 158 q 35 213 35 286 q 35 399 60 482 q 84 566 126 621 q 169 676 226 704 q 283 730 348 730 z m 272 91 q 308 91 340 112 q 372 133 395 176 q 418 218 432 282 q 445 346 445 434 q 445 490 436 528 q 426 566 411 589 q 395 612 374 622 q 354 632 332 632 q 296 632 264 610 q 233 590 210 547 q 186 504 173 440 q 160 376 160 289 q 160 233 169 195 q 178 157 194 134 q 210 111 230 101 q 250 91 272 91 z"},"F":{"x_min":0,"x_max":516,"ha":516,"o":"m 532 620 l 242 620 l 214 400 l 460 400 l 446 296 l 202 296 l 166 0 l 35 0 l 124 723 l 546 723 z"},"`":{"x_min":0,"x_max":296,"ha":296,"o":"m 130 730 q 149 730 158 724 q 166 718 172 704 l 222 583 l 154 583 q 140 583 132 586 q 124 590 117 600 l 18 730 z"},"k":{"x_min":0,"x_max":512,"ha":512,"o":"m 245 743 l 193 318 l 206 318 q 217 318 224 321 q 232 324 240 334 l 376 492 q 384 502 394 507 q 404 513 418 513 l 528 513 l 359 322 q 350 312 340 303 q 330 294 320 288 q 330 281 336 271 q 342 260 348 249 l 475 0 l 368 0 q 354 0 346 5 q 337 10 331 22 l 232 216 q 226 228 219 232 q 213 235 199 235 l 182 235 l 154 0 l 32 0 l 123 743 z"},"u":{"x_min":0,"x_max":540,"ha":540,"o":"m 206 513 q 196 428 188 370 q 182 312 177 272 q 172 234 170 211 q 168 188 166 177 q 165 166 165 162 q 164 158 164 155 q 164 122 177 108 q 189 94 214 94 q 234 94 254 104 q 275 115 294 135 q 314 155 330 184 q 346 212 358 247 l 390 513 l 514 513 l 452 0 l 389 0 q 380 0 373 2 q 365 4 359 9 q 352 14 349 20 q 345 28 345 37 l 345 39 l 348 102 q 309 46 263 20 q 216 -8 167 -8 q 138 -8 115 3 q 92 13 76 32 q 59 52 50 81 q 41 110 41 146 q 41 156 42 166 q 42 176 44 188 l 82 513 z"},"]":{"x_min":0,"x_max":276,"ha":276,"o":"m -16 -152 l -10 -106 q -8 -94 2 -85 q 12 -76 25 -76 l 86 -76 l 182 696 l 120 696 q 108 696 100 703 q 92 711 92 722 l 98 772 l 290 772 l 176 -152 z"},"U":{"x_min":0,"x_max":669,"ha":669,"o":"m 318 104 q 352 104 382 117 q 411 130 433 155 q 455 179 469 213 q 484 247 488 288 l 542 723 l 672 723 l 618 288 q 610 224 584 170 q 558 116 518 76 q 477 36 423 14 q 368 -8 304 -8 q 246 -8 200 10 q 154 28 123 62 q 92 94 76 140 q 60 186 60 241 q 60 264 62 288 l 115 723 l 245 723 l 192 289 q 190 280 190 270 q 190 262 190 253 q 190 219 198 192 q 206 164 222 144 q 238 125 262 114 q 286 104 318 104 z"},"o":{"x_min":0,"x_max":512,"ha":512,"o":"m 231 88 q 262 88 287 105 q 312 123 330 153 q 348 182 357 222 q 366 262 366 305 q 366 368 345 397 q 324 426 281 426 q 250 426 225 409 q 200 392 182 362 q 165 332 156 292 q 146 252 146 208 q 146 146 167 117 q 188 88 231 88 z m 220 -8 q 178 -8 141 7 q 105 21 79 48 q 52 76 38 116 q 22 156 22 208 q 22 274 44 332 q 65 389 102 431 q 138 473 188 497 q 236 521 292 521 q 334 521 371 507 q 407 492 434 465 q 460 438 475 398 q 490 358 490 306 q 490 240 468 183 q 447 126 410 83 q 374 41 324 17 q 276 -8 220 -8 z"},"N":{"x_min":0,"x_max":696,"ha":696,"o":"m 192 723 q 200 723 206 722 q 212 722 216 719 q 221 717 224 713 q 228 709 232 702 l 514 208 q 514 223 516 237 q 517 250 518 262 l 575 723 l 690 723 l 600 0 l 534 0 q 518 0 508 5 q 498 10 490 22 l 210 516 q 210 504 208 493 q 208 482 206 472 l 150 0 l 35 0 l 124 723 l 192 723 z"},"+":{"x_min":0,"x_max":580,"ha":580,"o":"m 380 586 l 354 380 l 550 380 l 539 292 l 344 292 l 318 84 l 221 84 l 246 292 l 52 292 l 63 380 l 258 380 l 283 586 z"},"G":{"x_min":0,"x_max":664,"ha":664,"o":"m 354 96 q 394 96 425 103 q 456 111 484 125 l 502 263 l 422 263 q 410 263 404 269 q 398 274 398 284 l 406 360 l 631 360 l 595 70 q 540 30 476 11 q 413 -8 332 -8 q 265 -8 211 16 q 156 40 118 83 q 79 126 58 184 q 37 243 37 312 q 37 374 50 428 q 64 483 89 530 q 114 576 148 613 q 183 650 226 677 q 270 703 320 717 q 370 731 424 731 q 468 731 504 723 q 540 716 570 702 q 598 688 622 670 q 644 652 662 632 l 620 578 q 607 561 588 561 q 577 561 566 568 q 550 579 534 588 q 519 598 502 605 q 484 612 463 616 q 442 620 415 620 q 361 620 316 598 q 271 576 238 537 q 206 497 188 441 q 170 386 170 317 q 170 265 183 224 q 196 183 220 154 q 244 126 278 111 q 312 96 354 96 z"},"q":{"x_min":0,"x_max":520,"ha":520,"o":"m 409 -168 l 329 -168 q 318 -168 311 -164 q 304 -160 300 -155 q 296 -150 294 -142 q 292 -136 292 -128 q 292 -128 292 -126 q 292 -124 293 -118 q 294 -112 295 -98 q 296 -84 300 -60 q 302 -36 307 1 q 312 38 319 93 q 286 46 246 19 q 206 -8 158 -8 q 130 -8 104 4 q 79 16 60 38 q 42 61 31 95 q 20 130 20 176 q 20 222 32 265 q 43 308 64 347 q 86 385 116 417 q 146 449 183 472 q 220 495 263 508 q 306 520 354 520 q 389 520 424 516 q 458 510 492 498 z m 207 94 q 227 94 247 107 q 266 121 284 145 q 302 170 316 202 q 331 236 342 274 l 362 432 q 356 432 350 433 q 344 433 338 433 q 296 433 260 414 q 225 395 199 363 q 173 330 158 288 q 144 245 144 198 q 144 144 160 118 q 178 94 207 94 z"},"d":{"x_min":0,"x_max":541,"ha":541,"o":"m 382 0 q 359 0 350 10 q 341 21 341 37 l 345 112 q 308 57 262 25 q 216 -8 164 -8 q 132 -8 106 4 q 80 16 61 40 q 42 63 32 99 q 22 135 22 184 q 22 228 32 269 q 40 311 57 348 q 74 386 96 418 q 119 449 147 472 q 175 495 207 508 q 238 521 272 521 q 307 521 335 508 q 363 496 384 474 l 418 743 l 538 743 l 447 0 z m 212 90 q 232 90 253 103 q 274 117 294 141 q 313 166 330 198 q 346 231 358 269 l 374 394 q 357 412 335 420 q 313 427 292 427 q 259 427 232 406 q 205 386 186 353 q 166 320 156 279 q 146 238 146 196 q 146 142 163 116 q 180 90 212 90 z"},"1":{"x_min":0,"x_max":580,"ha":580,"o":"m 116 90 l 264 90 l 318 531 l 328 573 l 206 480 q 199 474 192 472 q 186 470 180 470 q 170 470 162 475 q 154 479 152 484 l 121 536 l 363 724 l 462 724 l 383 90 l 515 90 l 504 0 l 106 0 z"},"5":{"x_min":0,"x_max":580,"ha":580,"o":"m 546 672 q 544 647 525 631 q 507 615 469 615 l 267 615 l 220 458 q 268 468 309 468 q 362 468 402 453 q 441 438 468 413 q 494 387 507 352 q 520 317 520 276 q 520 234 510 196 q 499 159 480 127 q 460 96 432 70 q 405 46 372 28 q 338 10 300 1 q 262 -8 220 -8 q 186 -8 156 -1 q 127 6 102 17 q 77 28 56 44 q 36 59 20 76 l 62 127 q 69 136 78 139 q 86 142 94 142 q 107 142 119 134 q 131 126 147 117 q 162 108 184 100 q 206 92 239 92 q 278 92 308 105 q 338 118 358 141 q 378 164 389 194 q 400 225 400 260 q 400 310 369 340 q 338 370 274 370 q 251 370 224 366 q 198 362 166 352 l 95 374 l 198 723 l 552 723 z"}}}
